<svg width="516" height="69" viewBox="0 0 516 69" fill="none" xmlns="http://www.w3.org/2000/svg">
<path d="M3.18586 0.389494C2.29641 -0.26544 1.04443 -0.075321 0.389494 0.814137C-0.26544 1.70359 -0.075321 2.95557 0.814137 3.61051L3.18586 0.389494ZM294.046 44.4307L293.151 42.642L294.046 44.4307ZM0.814137 3.61051C2.15983 4.60138 3.55942 5.60796 5.01113 6.62773L7.31038 3.35459C5.8822 2.35134 4.50679 1.36213 3.18586 0.389494L0.814137 3.61051ZM13.6095 12.4183C16.4096 14.2295 19.3532 16.0662 22.4314 17.9157L24.4915 14.487C21.4503 12.6597 18.5442 10.8464 15.7819 9.05964L13.6095 12.4183ZM31.4011 23.1212C34.3371 24.7673 37.3721 26.4144 40.5003 28.0539L42.3571 24.511C39.2624 22.889 36.2604 21.2598 33.3573 19.6321L31.4011 23.1212ZM49.7483 32.7402C52.8007 34.2351 55.928 35.7165 59.1253 37.1773L60.7876 33.5391C57.6232 32.0933 54.5283 30.6273 51.5077 29.1479L49.7483 32.7402ZM68.6183 41.3621C71.7574 42.6961 74.9549 44.0059 78.2068 45.2859L79.6718 41.5638C76.4538 40.2972 73.2894 39.0009 70.1827 37.6807L68.6183 41.3621ZM87.895 48.948C91.1127 50.1143 94.3769 51.2479 97.6841 52.3437L98.9422 48.5467C95.6708 47.4628 92.4416 46.3414 89.2581 45.1874L87.895 48.948ZM107.568 55.4633C110.856 56.4495 114.181 57.3953 117.54 58.2961L118.576 54.4325C115.256 53.5421 111.968 52.6071 108.717 51.6319L107.568 55.4633ZM127.596 60.8298C130.944 61.6192 134.322 62.3612 137.727 63.0513L138.521 59.131C135.159 58.4495 131.822 57.7166 128.514 56.9366L127.596 60.8298ZM147.927 64.9461C151.325 65.5194 154.746 66.0384 158.187 66.4987L158.717 62.5341C155.322 62.0799 151.946 61.5678 148.592 61.0018L147.927 64.9461ZM168.498 67.693C171.932 68.0286 175.383 68.303 178.848 68.5121L179.089 64.5194C175.674 64.3133 172.272 64.0428 168.887 63.712L168.498 67.693ZM189.225 68.9388C192.677 69.0135 196.141 69.0205 199.613 68.9559L199.539 64.9566C196.121 65.0202 192.711 65.0133 189.311 64.9398L189.225 68.9388ZM209.997 68.5465C213.445 68.3378 216.9 68.0552 220.357 67.6949L219.943 63.7165C216.544 64.0707 213.147 64.3486 209.755 64.5539L209.997 68.5465ZM230.673 66.3867C234.09 65.8749 237.506 65.2838 240.921 64.6097L240.146 60.6854C236.793 61.3474 233.437 61.928 230.081 62.4308L230.673 66.3867ZM251.073 62.3554C254.423 61.5275 257.768 60.616 261.107 59.6174L259.96 55.7852C256.685 56.7651 253.402 57.6596 250.114 58.4722L251.073 62.3554ZM270.995 56.3936C274.244 55.2452 277.484 54.0104 280.713 52.6858L279.195 48.9851C276.028 50.2843 272.85 51.4957 269.662 52.6222L270.995 56.3936ZM290.236 48.5003C291.807 47.7624 293.376 47.0022 294.94 46.2193L293.151 42.642C291.616 43.41 290.077 44.1557 288.536 44.8795L290.236 48.5003ZM294.94 46.2193C296.512 45.433 298.078 44.6626 299.637 43.9079L297.894 40.3074C296.319 41.0698 294.738 41.848 293.151 42.642L294.94 46.2193ZM309.034 39.5131C312.232 38.0698 315.403 36.6924 318.546 35.3787L317.003 31.6881C313.826 33.0163 310.621 34.4086 307.389 35.8672L309.034 39.5131ZM328.171 31.5183C331.449 30.2594 334.694 29.0698 337.906 27.947L336.587 24.171C333.336 25.3073 330.052 26.5109 326.737 27.7843L328.171 31.5183ZM347.748 24.6808C351.1 23.6275 354.413 22.6471 357.688 21.7364L356.616 17.8826C353.299 18.8052 349.943 19.7982 346.549 20.8647L347.748 24.6808ZM367.718 19.1314C371.134 18.3074 374.504 17.5596 377.827 16.884L377.03 12.9642C373.66 13.6494 370.243 14.4077 366.78 15.2429L367.718 19.1314ZM388 15.0124C391.468 14.4421 394.88 13.9506 398.234 13.5333L397.741 9.56391C394.334 9.98772 390.87 10.4866 387.351 11.0654L388 15.0124ZM408.55 12.4632C412.061 12.1723 415.503 11.9627 418.874 11.8285L418.715 7.83168C415.287 7.96819 411.788 8.1812 408.219 8.47686L408.55 12.4632ZM429.196 11.6472C432.736 11.665 436.188 11.7659 439.55 11.9418L439.759 7.94728C436.334 7.76808 432.819 7.66534 429.216 7.64725L429.196 11.6472ZM449.831 12.7337C453.365 13.0952 456.785 13.5393 460.085 14.0547L460.702 10.1026C457.332 9.57631 453.842 9.12315 450.238 8.75442L449.831 12.7337ZM470.236 15.9326C473.734 16.6844 477.07 17.5142 480.24 18.4047L481.322 14.5538C478.071 13.6406 474.655 12.7909 471.077 12.0219L470.236 15.9326ZM490.047 21.526C493.48 22.756 496.654 24.0482 499.558 25.3706L501.216 21.7302C498.206 20.3599 494.93 19.0262 491.396 17.7604L490.047 21.526ZM508.623 30.0779C510.165 30.9963 511.574 31.9094 512.849 32.8066L515.151 29.5356C513.787 28.5755 512.292 27.6076 510.671 26.6414L508.623 30.0779Z" fill="#D5E6FF"/>
</svg>
