<svg width="839" height="115" viewBox="0 0 839 115" fill="none" xmlns="http://www.w3.org/2000/svg">
<path d="M3.7168 0.412736C2.84017 -0.259282 1.58475 -0.0934179 0.912736 0.783204C0.240718 1.65983 0.406582 2.91525 1.2832 3.58726L3.7168 0.412736ZM1.2832 3.58726C2.58195 4.58288 3.91179 5.58802 5.2721 6.60176L7.66229 3.39443C6.31622 2.3913 5.00086 1.3971 3.7168 0.412736L1.2832 3.58726ZM13.5117 12.5803C16.2073 14.4863 19.0009 16.4155 21.8888 18.3622L24.1247 15.0455C21.2609 13.115 18.4918 11.2028 15.8211 9.31428L13.5117 12.5803ZM30.3932 23.9674C33.1931 25.7723 36.0691 27.5877 39.0183 29.4094L41.1204 26.0063C38.1929 24.198 35.3386 22.3963 32.5604 20.6054L30.3932 23.9674ZM47.7028 34.6641C50.5631 36.3595 53.4841 38.0569 56.4635 39.753L58.4424 36.2768C55.4833 34.5923 52.5826 32.9066 49.7424 31.2231L47.7028 34.6641ZM65.3365 44.7035C68.2799 46.313 71.2744 47.9184 74.3181 49.5167L76.1778 45.9753C73.1541 44.3874 70.1793 42.7927 67.2555 41.1939L65.3365 44.7035ZM83.3474 54.163C86.3345 55.669 89.3644 57.1661 92.4357 58.6518L94.1776 55.051C91.1262 53.5749 88.1158 52.0875 85.1482 50.5913L83.3474 54.163ZM101.631 63.007C104.683 64.422 107.772 65.8241 110.897 67.211L112.52 63.5549C109.415 62.177 106.345 60.784 103.313 59.3781L101.631 63.007ZM120.192 71.2449C123.292 72.5601 126.425 73.859 129.588 75.1393L131.089 71.4315C127.946 70.1595 124.834 68.8692 121.754 67.5626L120.192 71.2449ZM139.046 78.8752C142.183 80.0837 145.348 81.2729 148.54 82.4407L149.915 78.6842C146.744 77.5243 143.601 76.3431 140.484 75.1426L139.046 78.8752ZM158.127 85.8546C161.311 86.9575 164.52 88.038 167.752 89.0943L168.995 85.2922C165.785 84.2433 162.598 83.1702 159.436 82.0749L158.127 85.8546ZM177.433 92.1627C180.665 93.1555 183.92 94.1231 187.195 95.0636L188.299 91.2191C185.048 90.2853 181.817 89.3247 178.607 88.339L177.433 92.1627ZM196.97 97.7732C200.234 98.6453 203.517 99.4896 206.818 100.304L207.777 96.4209C204.501 95.6123 201.242 94.7744 198.002 93.9087L196.97 97.7732ZM216.714 102.645C220.008 103.39 223.318 104.105 226.643 104.788L227.448 100.869C224.149 100.192 220.865 99.483 217.597 98.7437L216.714 102.645ZM236.635 106.733C239.957 107.345 243.293 107.923 246.642 108.467L247.284 104.519C243.963 103.98 240.654 103.406 237.359 102.799L236.635 106.733ZM256.699 109.991C260.05 110.461 263.413 110.897 266.787 111.295L267.256 107.322C263.911 106.928 260.578 106.496 257.255 106.03L256.699 109.991ZM276.895 112.372C280.268 112.693 283.651 112.975 287.042 113.218L287.328 109.229C283.968 108.988 280.616 108.708 277.274 108.39L276.895 112.372ZM297.186 113.825C300.57 113.986 303.96 114.107 307.358 114.187L307.451 110.188C304.087 110.109 300.728 109.989 297.377 109.829L297.186 113.825ZM317.531 114.297C320.917 114.291 324.308 114.242 327.703 114.15L327.594 110.151C324.233 110.243 320.876 110.291 317.524 110.297L317.531 114.297ZM337.881 113.738C341.259 113.557 344.641 113.33 348.026 113.058L347.705 109.071C344.356 109.34 341.01 109.564 337.667 109.744L337.881 113.738ZM358.17 112.101C361.534 111.737 364.9 111.326 368.266 110.866L367.725 106.903C364.396 107.358 361.067 107.764 357.74 108.124L358.17 112.101ZM378.336 109.346C381.677 108.793 385.017 108.191 388.357 107.538L387.59 103.612C384.288 104.257 380.986 104.853 377.682 105.4L378.336 109.346ZM398.315 105.441C401.621 104.693 404.926 103.895 408.228 103.045L407.23 99.1716C403.967 100.012 400.701 100.801 397.433 101.539L398.315 105.441ZM418.033 100.364C421.291 99.4201 424.545 98.4243 427.795 97.3751L426.566 93.5685C423.355 94.6052 420.14 95.5892 416.92 96.5217L418.033 100.364ZM437.414 94.1078C440.604 92.9698 443.789 91.7788 446.969 90.5336L445.51 86.8091C442.369 88.0392 439.222 89.216 436.07 90.3404L437.414 94.1078ZM456.38 86.6812C459.49 85.3522 462.593 83.9699 465.69 82.5331L464.006 78.9047C460.947 80.3243 457.881 81.69 454.808 83.003L456.38 86.6812ZM474.857 78.1082C476.382 77.3437 477.904 76.5656 479.424 75.7738L477.576 72.2262C476.074 73.0086 474.57 73.7774 473.064 74.5327L474.857 78.1082ZM479.424 75.7738C480.903 75.0034 482.379 74.2419 483.851 73.4894L482.031 69.9276C480.549 70.6849 479.064 71.451 477.576 72.2262L479.424 75.7738ZM492.646 69.08C495.62 67.618 498.58 66.1923 501.526 64.8022L499.819 61.1847C496.854 62.584 493.874 64.019 490.881 65.4904L492.646 69.08ZM510.438 60.6851C513.464 59.3172 516.475 57.987 519.47 56.6935L517.884 53.0213C514.868 54.3237 511.837 55.6631 508.791 57.0402L510.438 60.6851ZM528.486 52.8914C531.565 51.6239 534.627 50.3954 537.672 49.2051L536.216 45.4796C533.149 46.6786 530.064 47.916 526.963 49.1925L528.486 52.8914ZM546.83 45.72C549.944 44.5673 553.04 43.4545 556.116 42.3808L554.798 38.6043C551.698 39.6862 548.579 40.8074 545.442 41.9688L546.83 45.72ZM565.435 39.2276C568.57 38.2003 571.685 37.2136 574.779 36.2664L573.608 32.4416C570.489 33.3964 567.349 34.3911 564.189 35.4265L565.435 39.2276ZM584.253 33.4702C587.431 32.5675 590.586 31.7065 593.718 30.8862L592.704 27.0168C589.546 27.844 586.364 28.7122 583.16 29.6225L584.253 33.4702ZM603.253 28.496C606.483 27.7229 609.687 26.9931 612.865 26.3054L612.019 22.3959C608.812 23.0898 605.58 23.826 602.322 24.6059L603.253 28.496ZM622.474 24.3375C625.724 23.7097 628.945 23.126 632.137 22.5849L631.469 18.6411C628.246 19.1874 624.995 19.7766 621.715 20.4101L622.474 24.3375ZM641.875 21.0515C645.153 20.5751 648.399 20.1437 651.611 19.7556L651.132 15.7845C647.887 16.1764 644.61 16.6121 641.3 17.0931L641.875 21.0515ZM661.347 18.7007C664.654 18.3838 667.925 18.1128 671.158 17.8859L670.878 13.8957C667.611 14.125 664.306 14.3988 660.965 14.719L661.347 18.7007ZM680.985 17.3246C684.299 17.1789 687.572 17.0795 690.803 17.0242L690.734 13.0248C687.468 13.0807 684.159 13.1812 680.809 13.3284L680.985 17.3246ZM700.611 16.9907C703.924 17.0252 707.189 17.1061 710.406 17.2307L710.561 13.2337C707.306 13.1076 704.003 13.0258 700.652 12.9909L700.611 16.9907ZM720.207 17.753C723.529 17.979 726.795 18.2515 730.004 18.5675L730.396 14.5867C727.147 14.2668 723.84 13.9909 720.478 13.7622L720.207 17.753ZM739.763 19.6813C743.067 20.111 746.304 20.5864 749.475 21.1037L750.119 17.1559C746.906 16.6316 743.625 16.15 740.279 15.7147L739.763 19.6813ZM759.129 22.8447C762.402 23.4926 765.596 24.1845 768.71 24.9156L769.624 21.0215C766.465 20.2797 763.225 19.5778 759.905 18.9208L759.129 22.8447ZM778.199 27.3288C781.423 28.2132 784.549 29.1385 787.574 30.098L788.784 26.2852C785.708 25.3096 782.532 24.3696 779.258 23.4713L778.199 27.3288ZM796.874 33.2642C800.048 34.4219 803.091 35.6145 806.002 36.8326L807.546 33.1428C804.577 31.9003 801.476 30.685 798.245 29.5064L796.874 33.2642ZM814.891 40.8224C817.975 42.3071 820.872 43.8128 823.575 45.3241L825.527 41.8327C822.749 40.2799 819.781 38.7367 816.625 37.2181L814.891 40.8224ZM831.854 50.3535C833.251 51.2795 834.573 52.2006 835.818 53.1132L838.182 49.8868C836.884 48.9353 835.511 47.9784 834.064 47.0193L831.854 50.3535Z" fill="#D5E6FF"/>
</svg>
