<svg xmlns="http://www.w3.org/2000/svg" width="154" height="95" fill="none"><path fill="#fff" d="M50.377 79.847v5.493c0 1.516-.334 2.876-1.008 4.086a7.572 7.572 0 0 1-2.744 2.876c-1.163.703-2.481 1.055-3.955 1.055-1.473 0-2.875-.292-3.954-.87-1.092-.58-2.005-1.319-2.709-2.208a.948.948 0 0 1-.226-.596c0-.203.09-.37.286-.501.185-.155.4-.203.656-.173a.823.823 0 0 1 .579.37c.578.686 1.306 1.258 2.207 1.718.9.459 1.956.686 3.167.686 1.211 0 2.201-.275 3.096-.841.907-.555 1.623-1.33 2.148-2.309.518-.984.78-2.082.78-3.293v-1.252c-.059.12-.106.244-.166.352a6.174 6.174 0 0 1-2.416 2.362c-1.026.578-2.207.859-3.555.859-1.533 0-2.893-.34-4.062-1.008a7.412 7.412 0 0 1-2.774-2.774c-.674-1.181-1.008-2.53-1.008-4.038 0-.215.012-.43.03-.632h1.682c-.018.202-.03.417-.03.632 0 1.21.263 2.284.782 3.233a5.643 5.643 0 0 0 2.189 2.207c.936.537 2.004.8 3.197.8s2.26-.263 3.173-.8a5.653 5.653 0 0 0 2.178-2.207c.518-.949.78-2.022.78-3.233 0-.215-.011-.43-.029-.632h1.688c.012.202.018.417.018.632v.006ZM56.258 79.214v7.445a.819.819 0 0 1-.226.596c-.143.155-.352.245-.614.245a.813.813 0 0 1-.597-.245.788.788 0 0 1-.245-.596v-7.445h1.682ZM80.56 79.847c0 1.473-.34 2.803-1.026 3.984a7.524 7.524 0 0 1-2.786 2.804c-1.181.686-2.511 1.026-4.008 1.026-1.498 0-2.834-.34-4.027-1.026a7.527 7.527 0 0 1-2.803-2.804c-.674-1.18-1.014-2.51-1.014-3.984 0-.215.012-.43.03-.632h1.682c-.018.202-.03.417-.03.632 0 1.175.274 2.237.811 3.173a6.08 6.08 0 0 0 2.219 2.249c.925.549 1.974.823 3.138.823 1.163 0 2.225-.274 3.143-.823a5.915 5.915 0 0 0 2.19-2.249c.536-.936.799-2.01.799-3.203 0-.203-.012-.412-.03-.608h1.682c.018.202.03.417.03.632v.006ZM98.58 79.215v7.444a.844.844 0 0 1-.227.596.816.816 0 0 1-.614.245.861.861 0 0 1-.609-.245.824.824 0 0 1-.232-.596V85.19a6.703 6.703 0 0 1-2.034 1.7c-.979.525-2.082.8-3.293.8-1.348 0-2.547-.287-3.615-.83-1.067-.548-1.903-1.36-2.54-2.421-.627-1.068-.937-2.362-.937-3.901v-1.33h1.688v1.33c0 1.222.233 2.225.716 3.036a4.421 4.421 0 0 0 1.932 1.825c.811.4 1.73.597 2.756.597 1.026 0 1.915-.197 2.714-.585.8-.394 1.438-.919 1.903-1.58.471-.663.704-1.42.704-2.255v-2.362h1.688ZM119.29 79.847c0 1.473-.34 2.803-1.026 3.984a7.522 7.522 0 0 1-2.804 2.804c-1.181.686-2.529 1.026-4.026 1.026-1.336 0-2.553-.293-3.627-.871a6.623 6.623 0 0 1-2.511-2.326v8.744c0 .233-.065.442-.226.597-.15.167-.352.244-.615.244a.787.787 0 0 1-.596-.244.788.788 0 0 1-.245-.597v-13.54c0-.155.012-.304.03-.46h1.682c-.018.203-.03.418-.03.633 0 1.175.275 2.237.8 3.173a6.067 6.067 0 0 0 2.201 2.249c.936.549 1.986.823 3.137.823s2.237-.274 3.156-.823a6.13 6.13 0 0 0 2.201-2.249c.548-.936.811-2.004.811-3.173 0-.215-.012-.43-.03-.632h1.688c.018.202.03.417.03.632v.006Z"/><path fill="url(#a)" d="M46.601 73.011c-1.163-.674-2.51-1.008-4.044-1.008-1.533 0-2.803.334-3.996 1.008a7.566 7.566 0 0 0-2.816 2.774c-.596 1.008-.93 2.147-1.008 3.43h1.682a6.275 6.275 0 0 1 .752-2.637 5.643 5.643 0 0 1 2.189-2.207c.936-.537 2.004-.8 3.197-.8s2.26.263 3.173.8a5.652 5.652 0 0 1 2.178 2.207c.43.781.686 1.658.751 2.636h1.688c-.077-1.282-.411-2.421-.984-3.43a7.314 7.314 0 0 0-2.768-2.773h.006Z"/><path fill="url(#b)" d="M62.736 72.248c-.393-.168-.948-.245-1.652-.245-1.044 0-2.004.256-2.863.781-.793.477-1.438 1.134-1.962 1.957v-1.73c0-.262-.072-.471-.227-.614-.143-.156-.352-.227-.614-.227-.245 0-.442.066-.597.227-.167.149-.245.352-.245.614v6.204h1.682V78.14c0-.877.203-1.658.615-2.344a4.326 4.326 0 0 1 1.712-1.61c.733-.395 1.563-.585 2.5-.585.351 0 .673.017.965.065.287.048.537.042.74-.012.203-.06.334-.227.394-.507.09-.43-.06-.722-.448-.9Z"/><path fill="url(#c)" d="M76.748 73.017c-1.18-.686-2.511-1.014-4.008-1.014-1.497 0-2.834.334-4.027 1.014a7.613 7.613 0 0 0-2.803 2.803c-.579 1.015-.907 2.148-.984 3.389h1.682c.077-.949.34-1.808.781-2.577a6.046 6.046 0 0 1 2.22-2.237c.924-.555 1.974-.83 3.137-.83s2.225.275 3.143.83c.93.549 1.664 1.3 2.19 2.237.44.781.703 1.64.769 2.577h1.682c-.078-1.241-.412-2.374-.996-3.389a7.611 7.611 0 0 0-2.786-2.803Z"/><path fill="url(#d)" d="M85.326 72.17a.842.842 0 0 0-.609.233.841.841 0 0 0-.244.608v6.204h1.688V73.01a.851.851 0 0 0-.245-.608.814.814 0 0 0-.596-.233h.006Z"/><path fill="url(#e)" d="M97.739 72.17c-.245 0-.442.066-.609.227-.155.149-.232.352-.232.614v6.204h1.682V73.01c0-.262-.078-.471-.227-.614-.149-.156-.352-.227-.614-.227Z"/><path fill="url(#f)" d="M118.264 75.82a7.613 7.613 0 0 0-2.803-2.803c-1.181-.686-2.53-1.014-4.027-1.014-1.497 0-2.767.334-3.949 1.008-1.175.674-2.111 1.58-2.785 2.726-.615 1.038-.966 2.19-1.056 3.478h1.682c.078-.949.34-1.808.77-2.577a6.035 6.035 0 0 1 2.201-2.237c.936-.555 1.986-.83 3.137-.83s2.237.275 3.156.83a6.142 6.142 0 0 1 2.201 2.237c.447.77.704 1.634.781 2.576h1.688c-.077-1.24-.411-2.373-.996-3.388v-.005Z"/><path fill="#fff" d="M154 28.62c0 4.2-.692 8.058-2.076 11.56a26.956 26.956 0 0 1-1.61 3.4c-.233.43-.484.853-.746 1.264a25.178 25.178 0 0 1-3.507 4.42c-2.529 2.56-5.524 4.54-8.984 5.947-3.459 1.408-7.283 2.106-11.488 2.106-4.205 0-8.041-.698-11.518-2.106a33.873 33.873 0 0 1-1.247-.536 3.517 3.517 0 0 0 2.917-6.383c.423.227.853.43 1.3.62 2.595 1.116 5.446 1.677 8.548 1.677 3.102 0 5.953-.561 8.554-1.676 2.6-1.122 4.855-2.673 6.764-4.653a19.824 19.824 0 0 0 2.565-3.287v-.012c.191-.286.358-.572.531-.865 0-.012 0-.018.012-.024.483-.888.918-1.813 1.294-2.791 1.02-2.672 1.533-5.56 1.533-8.661 0-3.102-.513-5.989-1.533-8.655-1.026-2.673-2.493-4.999-4.402-6.98a20.177 20.177 0 0 0-6.764-4.61c-2.601-1.098-5.452-1.653-8.554-1.653-3.102 0-5.953.555-8.548 1.653-2.6 1.091-4.843 2.636-6.728 4.61-1.885 1.981-3.352 4.307-4.402 6.98a22.58 22.58 0 0 0-1.354 5.255c-.066.5-.114.99-.144 1.497a3.668 3.668 0 0 1-3.501 2.577 3.658 3.658 0 0 1-3.633-3.263c.03-.495.072-.972.126-1.444.31-2.654.924-5.153 1.855-7.48 1.384-3.489 3.322-6.501 5.828-9.06 2.505-2.547 5.499-4.528 8.983-5.935C117.548.704 121.39 0 125.589 0c4.199 0 8.029.704 11.488 2.112 3.46 1.407 6.455 3.388 8.984 5.935 2.523 2.559 4.479 5.571 5.863 9.06 1.384 3.478 2.076 7.32 2.076 11.513ZM29.172 53.607a2.892 2.892 0 0 1-1.945 2.732 4.502 4.502 0 0 1-.405.107c-2.118.567-4.343.853-6.675.853-3.048 0-5.9-.453-8.548-1.354-2.648-.907-4.945-2.183-6.901-3.83C2.74 50.47 1.286 48.548.33 46.36c-.43-.81-.441-1.574-.035-2.29.405-.716 1.085-1.193 2.04-1.432.715-.19 1.431-.107 2.147.25.716.359 1.24.92 1.575 1.683.715 1.336 1.753 2.535 3.107 3.609 1.36 1.073 2.983 1.908 4.868 2.505 1.885.596 3.925.895 6.114.895 1.915 0 3.674-.239 5.273-.728a2.89 2.89 0 0 1 3.752 2.756Z"/><path fill="url(#g)" d="M39.18 41.205c0 2.625-.488 4.94-1.466 6.938a14.085 14.085 0 0 1-4.116 5.046c-1.766 1.36-3.806 2.386-6.114 3.078l-.257.071a2.892 2.892 0 0 0 1.945-2.732 2.89 2.89 0 0 0-3.752-2.755 13.08 13.08 0 0 0 1.384-.49c1.95-.81 3.501-1.98 4.646-3.507 1.146-1.52 1.718-3.382 1.718-5.577 0-2.768-1.05-5.184-3.15-7.26-2.093-2.075-5.433-3.376-10.014-3.9a31.685 31.685 0 0 1-1.122-.15 2.774 2.774 0 0 0 3.054-2.768 2.77 2.77 0 0 0-2.153-2.701c.53.089 1.08.178 1.652.256 5.917.764 10.35 2.547 13.308 5.362 2.959 2.816 4.438 6.508 4.438 11.09Z"/><path fill="#fff" d="M38 11.697c-.167.788-.608 1.396-1.324 1.826-.764.381-1.563.44-2.398.178a3.206 3.206 0 0 1-1.897-1.539 15.385 15.385 0 0 0-2.678-3.185C28.629 8 27.329 7.224 25.802 6.651c-1.527-.573-3.34-.883-5.44-.93-3.669 0-6.675.763-9.013 2.29-2.339 1.527-3.502 3.794-3.502 6.8 0 1.521.418 2.965 1.247 4.325.835 1.36 2.243 2.517 4.223 3.471 1.58.764 3.62 1.372 6.126 1.831a.948.948 0 0 1 .137.024l.203.036a2.77 2.77 0 0 1 2.153 2.702 2.774 2.774 0 0 1-3.352 2.72c-5.005-.775-8.977-2.452-11.918-5.022-3.221-2.816-4.832-6.3-4.832-10.445 0-2.959.812-5.523 2.434-7.695 1.623-2.165 3.836-3.835 6.651-5.004C13.735.584 16.932 0 20.505 0c2.72 0 5.153.418 7.3 1.253 2.148.835 4.015 1.944 5.614 3.322a19.789 19.789 0 0 1 3.973 4.653c.572.859.775 1.682.608 2.47Z"/><path fill="url(#h)" d="M65.63 53.684c0 1.605-1.3 2.9-2.9 2.9h-9.269c-.907 0-1.682-.287-2.326-.86-.645-.572-.967-1.306-.967-2.213V26.687c0 1.706 1.39 3.09 3.096 3.09 1.575 0 2.87-1.17 3.06-2.69V50.79h6.407a2.897 2.897 0 0 1 2.898 2.893Z"/><path fill="#fff" d="M89.447 39.917c0 3.293-.751 6.174-2.254 8.655-1.504 2.482-3.58 4.438-6.222 5.864-2.648 1.432-5.69 2.147-9.126 2.147H62.73a2.898 2.898 0 0 0 2.898-2.899c0-1.604-1.3-2.892-2.899-2.892h9.115c2.243 0 4.235-.442 5.977-1.325s3.114-2.123 4.11-3.722c1.002-1.592 1.503-3.537 1.503-5.828 0-2.1-.501-3.913-1.503-5.44-.072-.107-.138-.208-.221-.31a7.39 7.39 0 0 0-.728-.9c-.859-.949-1.915-1.713-3.161-2.291-1.742-.811-3.734-1.217-5.977-1.217H59.754v-5.87h10.809c2.809 0 5.123-.757 6.937-2.284 1.813-1.527 2.72-3.722 2.72-6.585s-.907-4.933-2.72-6.365c-1.814-1.431-4.128-2.147-6.938-2.147H56.325v20.579a3.077 3.077 0 0 1-3.06 2.69 3.096 3.096 0 0 1-3.096-3.09v-22.9c0-.906.287-1.646.86-2.212.572-.573 1.312-.86 2.218-.86h17.316c2.953 0 5.614.621 7.976 1.856 2.362 1.24 4.229 2.923 5.613 5.046 1.383 2.124 2.075 4.593 2.075 7.403 0 2.529-.68 4.772-2.04 6.728-1.36 1.957-3.137 3.478-5.326 4.575 2.421.627 4.491 1.694 6.21 3.215.28.245.554.507.81.776.221.227.43.46.633.698 1.956 2.314 2.934 5.279 2.934 8.905Z"/><path fill="#FFB6B6" d="M56.354 26.687c0 .131-.006.263-.03.4v-.793c.024.13.03.262.03.393Z"/><path fill="url(#i)" d="M117.578 51.388a3.517 3.517 0 0 1-4.754 3.286c-.012 0-.024-.006-.036-.017-.167-.078-.334-.156-.501-.24-2.732-1.323-5.136-3.041-7.2-5.153-2.505-2.547-4.443-5.577-5.827-9.084-1.384-3.502-2.082-7.361-2.082-11.56 0-.877.03-1.742.101-2.59a3.658 3.658 0 0 0 3.633 3.264 3.67 3.67 0 0 0 3.501-2.571c-.053.62-.071 1.258-.071 1.896 0 3.102.519 5.99 1.569 8.662 1.049 2.678 2.517 4.998 4.402 6.979a19.85 19.85 0 0 0 5.41 4.026c.006.006.012.006.018.006a3.524 3.524 0 0 1 1.837 3.096Z"/><path fill="url(#j)" d="M112.788 54.657a2.752 2.752 0 0 1-.501-.239c.167.084.334.161.501.239Z"/><defs><linearGradient id="a" x1="42.545" x2="42.545" y1="71.508" y2="85.871" gradientUnits="userSpaceOnUse"><stop stop-color="#00083F" stop-opacity=".14"/><stop offset=".56" stop-color="#fff"/></linearGradient><linearGradient id="b" x1="58.895" x2="58.895" y1="72.594" y2="80.3" gradientUnits="userSpaceOnUse"><stop stop-color="#00083F" stop-opacity=".27"/><stop offset=".56" stop-color="#fff"/></linearGradient><linearGradient id="c" x1="72.728" x2="72.728" y1="71.281" y2="85.639" gradientUnits="userSpaceOnUse"><stop stop-color="#00083F" stop-opacity=".29"/><stop offset=".56" stop-color="#fff"/></linearGradient><linearGradient id="d" x1="85.332" x2="85.32" y1="72.242" y2="76.93" gradientUnits="userSpaceOnUse"><stop stop-color="#00083F" stop-opacity=".28"/><stop offset="1" stop-color="#fff"/></linearGradient><linearGradient id="e" x1="97.739" x2="97.739" y1="72.224" y2="76.918" gradientUnits="userSpaceOnUse"><stop stop-color="#00083F" stop-opacity=".29"/><stop offset="1" stop-color="#fff"/></linearGradient><linearGradient id="f" x1="111.458" x2="111.458" y1="70.38" y2="84.732" gradientUnits="userSpaceOnUse"><stop stop-color="#00083F" stop-opacity=".29"/><stop offset=".56" stop-color="#fff"/></linearGradient><linearGradient id="g" x1="23.07" x2="41.161" y1="33.415" y2="55.629" gradientUnits="userSpaceOnUse"><stop stop-color="#00083F" stop-opacity=".08"/><stop offset=".1" stop-color="#383E69" stop-opacity=".51"/><stop offset=".34" stop-color="#C4C6D3"/><stop offset=".43" stop-color="#fff"/><stop offset=".88" stop-color="#fff"/></linearGradient><linearGradient id="h" x1="57.899" x2="57.899" y1="30.63" y2="71.203" gradientUnits="userSpaceOnUse"><stop stop-color="#00083F" stop-opacity=".15"/><stop offset=".03" stop-color="#0A1146" stop-opacity=".29"/><stop offset=".08" stop-color="#262C5B" stop-opacity=".28"/><stop offset=".14" stop-color="#53587D" stop-opacity=".46"/><stop offset=".21" stop-color="#9195AC"/><stop offset=".29" stop-color="#E0E1E7"/><stop offset=".32" stop-color="#fff"/></linearGradient><linearGradient id="i" x1="107.104" x2="107.67" y1="26.09" y2="54.865" gradientUnits="userSpaceOnUse"><stop offset=".14" stop-color="#00083F" stop-opacity="0"/><stop offset=".33" stop-color="#747996"/><stop offset=".49" stop-color="#D7D9E1"/><stop offset=".57" stop-color="#fff"/></linearGradient><linearGradient id="j" x1="112.544" x2="112.538" y1="54.442" y2="54.847" gradientUnits="userSpaceOnUse"><stop stop-color="#00083F"/><stop offset=".03" stop-color="#131B4E"/><stop offset=".1" stop-color="#474D75"/><stop offset=".19" stop-color="#9B9EB3"/><stop offset=".3" stop-color="#fff"/></linearGradient></defs></svg>