<svg xmlns="http://www.w3.org/2000/svg" width="124" height="76" fill="none"><g clip-path="url(#a)"><path fill="#00083F" d="M40.572 64.556v4.422c0 1.22-.27 2.312-.812 3.292a6.05 6.05 0 0 1-2.209 2.312c-.936.567-1.997.85-3.183.85-1.186 0-2.314-.235-3.183-.7-.879-.467-1.613-1.063-2.18-1.78a.754.754 0 0 1-.182-.48c0-.168.072-.298.225-.403.149-.125.322-.164.528-.14a.663.663 0 0 1 .466.298 5.621 5.621 0 0 0 1.777 1.384c.725.37 1.574.553 2.55.553.974 0 1.766-.221 2.491-.678a4.804 4.804 0 0 0 1.729-1.855c.417-.793.629-1.677.629-2.653v-1.01c-.049.097-.087.198-.135.284a4.992 4.992 0 0 1-1.94 1.904c-.825.466-1.776.692-2.861.692-1.234 0-2.329-.274-3.27-.813a5.97 5.97 0 0 1-2.233-2.234c-.542-.952-.811-2.038-.811-3.25 0-.172.01-.345.024-.509h1.354a5.847 5.847 0 0 0-.024.51c0 .975.211 1.84.629 2.605a4.543 4.543 0 0 0 1.762 1.778c.754.433 1.613.644 2.569.644.955 0 1.815-.211 2.554-.644a4.552 4.552 0 0 0 1.753-1.778c.417-.764.629-1.63.629-2.605 0-.173-.01-.346-.025-.51h1.36c.009.164.014.337.014.51l.005.004ZM45.306 64.047v5.998a.65.65 0 0 1-.677.678.655.655 0 0 1-.48-.197.635.635 0 0 1-.197-.48v-5.999h1.354ZM64.862 64.556c0 1.188-.274 2.26-.826 3.211a6.06 6.06 0 0 1-2.243 2.259c-.95.553-2.02.827-3.221.827-1.2 0-2.28-.274-3.241-.827a6.06 6.06 0 0 1-2.257-2.259c-.542-.952-.816-2.023-.816-3.21 0-.174.01-.347.024-.51h1.354a5.847 5.847 0 0 0-.024.51c0 .946.22 1.802.653 2.556a4.896 4.896 0 0 0 1.786 1.812c.744.443 1.59.664 2.526.664.936 0 1.79-.221 2.53-.664a4.797 4.797 0 0 0 1.762-1.812c.432-.754.643-1.62.643-2.58 0-.164-.01-.332-.024-.49h1.354c.015.163.024.336.024.509l-.004.004ZM79.362 64.047v5.998a.68.68 0 0 1-.183.48.657.657 0 0 1-.494.198.694.694 0 0 1-.49-.197.664.664 0 0 1-.187-.48v-1.183a5.398 5.398 0 0 1-1.638 1.37c-.787.422-1.675.644-2.65.644-1.085 0-2.05-.226-2.91-.668-.854-.443-1.531-1.096-2.045-1.952-.504-.86-.754-1.903-.754-3.138v-1.072h1.359v1.072c0 .985.187 1.793.576 2.446a3.56 3.56 0 0 0 1.556 1.47c.653.323 1.392.481 2.218.481.826 0 1.541-.158 2.185-.47.643-.313 1.157-.74 1.531-1.274.38-.534.567-1.14.567-1.817v-1.903h1.354l.005-.005ZM96.027 64.556c0 1.188-.273 2.26-.826 3.211a6.06 6.06 0 0 1-2.256 2.259c-.951.553-2.036.827-3.241.827-1.076 0-2.05-.236-2.92-.702a5.326 5.326 0 0 1-2.02-1.874v7.045a.64.64 0 0 1-.183.48c-.12.135-.284.198-.495.198a.634.634 0 0 1-.48-.197.635.635 0 0 1-.197-.48v-10.91c0-.126.01-.246.024-.37h1.354a5.847 5.847 0 0 0-.024.509c0 .947.221 1.802.643 2.557a4.919 4.919 0 0 0 1.767 1.812c.754.442 1.594.663 2.526.663.931 0 1.8-.221 2.54-.663a4.882 4.882 0 0 0 1.767-1.812c.442-.755.653-1.615.653-2.557 0-.173-.01-.346-.024-.51h1.358c.015.164.025.337.025.51l.01.004Z"/><path fill="url(#b)" d="M37.537 59.049c-.936-.544-2.021-.813-3.255-.813s-2.257.27-3.217.813a6.094 6.094 0 0 0-2.267 2.234c-.48.813-.748 1.73-.81 2.764h1.353c.053-.788.26-1.495.605-2.124a4.545 4.545 0 0 1 1.762-1.779c.754-.432 1.613-.644 2.569-.644.955 0 1.815.212 2.554.644a4.554 4.554 0 0 1 1.753 1.779 5.06 5.06 0 0 1 .605 2.124h1.358c-.062-1.033-.33-1.951-.792-2.764a5.912 5.912 0 0 0-2.223-2.234h.005Z"/><path fill="url(#c)" d="M50.52 58.433c-.317-.134-.764-.197-1.33-.197-.84 0-1.613.207-2.305.63-.638.385-1.157.913-1.58 1.576V59.05c0-.212-.057-.38-.182-.495-.115-.125-.283-.183-.494-.183-.197 0-.356.053-.48.183-.135.12-.197.283-.197.495v4.998h1.354v-.865c0-.707.163-1.336.494-1.889a3.484 3.484 0 0 1 1.378-1.298c.59-.317 1.258-.47 2.012-.47.283 0 .543.014.778.052.225.039.432.034.595-.01.163-.047.269-.182.317-.408.072-.346-.048-.581-.36-.726Z"/><path fill="url(#d)" d="M61.794 59.053c-.951-.552-2.022-.817-3.222-.817-1.2 0-2.28.27-3.241.817a6.134 6.134 0 0 0-2.257 2.26c-.465.816-.73 1.73-.792 2.73h1.354a4.93 4.93 0 0 1 .629-2.077 4.87 4.87 0 0 1 1.786-1.802c.744-.447 1.59-.668 2.526-.668.936 0 1.79.22 2.53.668a4.806 4.806 0 0 1 1.762 1.802c.355.63.566 1.322.62 2.076h1.353a6.13 6.13 0 0 0-3.044-4.989h-.005Z"/><path fill="url(#e)" d="M68.698 58.371a.677.677 0 0 0-.49.187.678.678 0 0 0-.197.49v5h1.359v-5a.655.655 0 0 0-.677-.678h.005Z"/><path fill="url(#f)" d="M78.685 58.371a.662.662 0 0 0-.49.183c-.125.12-.187.283-.187.495v4.998h1.354V59.05c0-.212-.063-.38-.183-.495-.12-.125-.283-.183-.494-.183Z"/><path fill="url(#g)" d="M95.201 61.312a6.134 6.134 0 0 0-2.256-2.259c-.95-.552-2.036-.817-3.241-.817s-2.223.27-3.179.813a6.036 6.036 0 0 0-2.242 2.196c-.495.836-.778 1.764-.85 2.802h1.354a5.061 5.061 0 0 1 .62-2.076 4.89 4.89 0 0 1 1.767-1.802c.753-.447 1.593-.669 2.525-.669.931 0 1.8.221 2.54.669a4.89 4.89 0 0 1 1.767 1.802c.36.62.566 1.312.629 2.076h1.359a6.173 6.173 0 0 0-.802-2.73l.01-.005Z"/><path fill="#00083F" d="M23.483 43.193a2.33 2.33 0 0 1-1.565 2.201 3.579 3.579 0 0 1-.326.087 20.68 20.68 0 0 1-5.373.687c-2.454 0-4.749-.365-6.88-1.09-2.132-.731-3.98-1.76-5.556-3.087C2.21 40.666 1.037 39.119.27 37.355c-.346-.654-.355-1.27-.029-1.846.327-.577.874-.961 1.642-1.154.576-.153 1.152-.086 1.729.202.576.289.998.74 1.267 1.356.576 1.076 1.412 2.042 2.502 2.907 1.094.866 2.4 1.538 3.918 2.02 1.517.48 3.159.72 4.921.72 1.541 0 2.958-.192 4.244-.586a2.328 2.328 0 0 1 3.02 2.22Z"/><path fill="url(#h)" d="M31.54 33.201c0 2.115-.394 3.98-1.181 5.59a11.347 11.347 0 0 1-3.313 4.066c-1.421 1.095-3.063 1.922-4.921 2.48l-.207.057a2.328 2.328 0 0 0-1.455-4.422c.384-.11.754-.245 1.114-.394 1.57-.653 2.819-1.595 3.74-2.826.922-1.225 1.383-2.725 1.383-4.493 0-2.23-.845-4.177-2.535-5.85-1.685-1.672-4.374-2.72-8.061-3.143a25.637 25.637 0 0 1-.903-.12 2.234 2.234 0 0 0 2.458-2.23c0-1.062-.74-1.951-1.733-2.177a41.5 41.5 0 0 0 1.33.207c4.763.615 8.33 2.052 10.712 4.32 2.381 2.269 3.572 5.244 3.572 8.935Z"/><path fill="#00083F" d="M30.59 9.425c-.135.634-.49 1.124-1.067 1.47a2.49 2.49 0 0 1-1.93.145 2.581 2.581 0 0 1-1.526-1.24 12.39 12.39 0 0 0-2.156-2.567C23.047 6.445 22 5.82 20.77 5.36c-1.23-.462-2.69-.711-4.38-.75-2.952 0-5.372.615-7.254 1.846-1.882 1.23-2.818 3.056-2.818 5.479 0 1.225.336 2.388 1.003 3.484.672 1.096 1.805 2.028 3.4 2.797 1.272.616 2.914 1.106 4.93 1.476.039.005.077.01.11.02l.164.028a2.232 2.232 0 0 1 1.733 2.177 2.234 2.234 0 0 1-2.698 2.192c-4.028-.625-7.226-1.976-9.593-4.047-2.593-2.269-3.89-5.075-3.89-8.416 0-2.384.654-4.45 1.96-6.2 1.306-1.744 3.087-3.09 5.353-4.032C11.057.471 13.631 0 16.507 0c2.19 0 4.148.336 5.877 1.01 1.728.672 3.231 1.566 4.518 2.676a15.942 15.942 0 0 1 3.198 3.75c.46.691.624 1.354.49 1.989ZM124 23.06c0 3.384-.552 6.493-1.666 9.314a21.77 21.77 0 0 1-1.301 2.74c-.183.346-.384.687-.6 1.019a19.845 19.845 0 0 1-2.824 3.561c-2.035 2.062-4.441 3.658-7.226 4.792-2.789 1.134-5.862 1.697-9.252 1.697-3.39 0-6.467-.563-9.266-1.697-.341-.14-.682-.284-1.004-.433a2.7 2.7 0 0 0 .99.183 2.83 2.83 0 0 0 2.832-2.83 2.84 2.84 0 0 0-1.479-2.495c.341.182.687.346 1.047.5 2.093.898 4.388 1.35 6.88 1.35s4.797-.452 6.885-1.35c2.094-.904 3.913-2.154 5.45-3.75a16.227 16.227 0 0 0 2.064-2.647v-.01c.154-.23.284-.461.423-.697 0-.01 0-.014.014-.02.384-.715.74-1.46 1.042-2.248.821-2.154 1.229-4.48 1.229-6.979 0-2.5-.408-4.825-1.229-6.974-.83-2.153-2.012-4.027-3.543-5.623a16.255 16.255 0 0 0-5.45-3.715c-2.088-.884-4.388-1.331-6.885-1.331s-4.787.447-6.88 1.33a15.954 15.954 0 0 0-5.411 3.716c-1.518 1.596-2.699 3.47-3.544 5.623a17.997 17.997 0 0 0-1.095 4.235c-.052.403-.086.797-.115 1.206a2.948 2.948 0 0 1-2.818 2.076 2.949 2.949 0 0 1-2.924-2.629c.024-.399.058-.783.1-1.163.255-2.139.75-4.152 1.499-6.027 1.114-2.812 2.674-5.239 4.686-7.3C86.645 4.43 89.06 2.836 91.865 1.7 94.664.567 97.75 0 101.13 0s6.463.567 9.252 1.701c2.785 1.135 5.191 2.73 7.226 4.783 2.036 2.061 3.606 4.489 4.725 7.3 1.114 2.802 1.666 5.897 1.666 9.276Z"/><path fill="url(#i)" d="M94.683 41.405a2.832 2.832 0 0 1-3.827 2.648c-.01 0-.019-.004-.029-.014a14.896 14.896 0 0 1-.403-.192 20.596 20.596 0 0 1-5.795-4.153c-2.017-2.052-3.577-4.494-4.691-7.32-1.114-2.82-1.676-5.93-1.676-9.314 0-.706.024-1.403.082-2.086a2.945 2.945 0 0 0 5.742.558c-.043.5-.057 1.014-.057 1.528 0 2.5.417 4.825 1.262 6.979.845 2.157 2.027 4.027 3.544 5.623a15.979 15.979 0 0 0 4.355 3.244c.004.005.01.005.014.005a2.84 2.84 0 0 1 1.479 2.494Z"/><path fill="url(#j)" d="M52.83 43.255a2.334 2.334 0 0 1-2.334 2.336h-7.461c-.73 0-1.354-.23-1.873-.692-.518-.461-.778-1.052-.778-1.783V21.503a2.493 2.493 0 0 0 2.492 2.49c1.268 0 2.31-.943 2.463-2.168v19.1h5.157a2.333 2.333 0 0 1 2.333 2.33Z"/><path fill="#00083F" d="M72.001 32.163c0 2.653-.605 4.974-1.815 6.974-1.21 1.999-2.88 3.575-5.008 4.724-2.131 1.154-4.58 1.73-7.346 1.73h-7.336a2.334 2.334 0 0 0 0-4.666h7.336c1.806 0 3.41-.356 4.811-1.067 1.402-.712 2.507-1.711 3.308-3 .807-1.283 1.21-2.85 1.21-4.695 0-1.692-.403-3.153-1.21-4.383-.057-.087-.11-.169-.177-.25a5.964 5.964 0 0 0-.586-.726c-.691-.764-1.541-1.38-2.545-1.846-1.402-.653-3.005-.98-4.81-.98H48.1v-4.73h8.7c2.262 0 4.125-.61 5.584-1.84 1.46-1.23 2.19-3 2.19-5.306 0-2.307-.73-3.975-2.19-5.128-1.46-1.154-3.322-1.73-5.584-1.73H45.34v16.58a2.478 2.478 0 0 1-2.464 2.168 2.493 2.493 0 0 1-2.492-2.49V3.053c0-.73.23-1.327.692-1.783.46-.462 1.056-.692 1.786-.692H56.8c2.377 0 4.518.5 6.42 1.494 1.9 1 3.404 2.355 4.518 4.066 1.114 1.711 1.67 3.701 1.67 5.965 0 2.038-.547 3.845-1.642 5.421-1.094 1.577-2.525 2.802-4.287 3.687 1.95.504 3.615 1.365 4.998 2.59.226.197.447.409.653.625.178.183.346.37.509.562 1.575 1.865 2.362 4.254 2.362 7.176Z"/><path fill="#FFB6B6" d="M45.363 21.503c0 .106-.005.211-.024.322v-.64c.02.106.024.212.024.318Z"/></g><defs><linearGradient id="b" x1="34.277" x2="34.277" y1="57.837" y2="69.411" gradientUnits="userSpaceOnUse"><stop stop-color="#fff"/><stop offset=".55" stop-color="#00083F"/></linearGradient><linearGradient id="c" x1="47.428" x2="47.428" y1="58.712" y2="64.922" gradientUnits="userSpaceOnUse"><stop stop-color="#fff"/><stop offset=".13" stop-color="#B9BBCA"/><stop offset=".28" stop-color="#6A6F8F"/><stop offset=".4" stop-color="#313763"/><stop offset=".5" stop-color="#0D1549"/><stop offset=".55" stop-color="#00083F"/></linearGradient><linearGradient id="d" x1="58.557" x2="58.557" y1="57.655" y2="69.219" gradientUnits="userSpaceOnUse"><stop stop-color="#fff"/><stop offset=".49" stop-color="#091146"/><stop offset="1" stop-color="#00083F"/></linearGradient><linearGradient id="e" x1="68.703" x2="68.693" y1="58.429" y2="62.206" gradientUnits="userSpaceOnUse"><stop stop-color="#fff"/><stop offset="1" stop-color="#00083F"/></linearGradient><linearGradient id="f" x1="78.685" x2="78.685" y1="58.414" y2="62.197" gradientUnits="userSpaceOnUse"><stop stop-color="#fff"/><stop offset="1" stop-color="#00083F"/></linearGradient><linearGradient id="g" x1="89.723" x2="89.723" y1="56.934" y2="68.488" gradientUnits="userSpaceOnUse"><stop stop-color="#fff"/><stop offset=".05" stop-color="#F0F0F3"/><stop offset=".15" stop-color="#C9CBD6"/><stop offset=".28" stop-color="#8B8EA7"/><stop offset=".44" stop-color="#363C67"/><stop offset=".54" stop-color="#00083F"/></linearGradient><linearGradient id="h" x1="18.572" x2="33.147" y1="26.924" y2="44.813" gradientUnits="userSpaceOnUse"><stop stop-color="#fff"/><stop offset=".4" stop-color="#00083F"/><stop offset="1" stop-color="#00083F"/></linearGradient><linearGradient id="i" x1="86.247" x2="86.709" y1="21.027" y2="44.207" gradientUnits="userSpaceOnUse"><stop offset=".04" stop-color="#fff"/><stop offset=".5" stop-color="#00083F"/></linearGradient><linearGradient id="j" x1="46.607" x2="46.607" y1="24.68" y2="57.371" gradientUnits="userSpaceOnUse"><stop stop-color="#fff"/><stop offset=".12" stop-color="#B6B9C8"/><stop offset=".27" stop-color="#696E8E"/><stop offset=".39" stop-color="#303663"/><stop offset=".48" stop-color="#0D1449"/><stop offset=".53" stop-color="#00083F"/></linearGradient><clipPath id="a"><path fill="#fff" d="M0 0h124v76H0z"/></clipPath></defs></svg>